<svg xmlns="http://www.w3.org/2000/svg" width="148" height="114" fill="none"><path fill="#FFEFEF" d="m123.752 25.757-1.779 1.097c-2.347-3.633-5.678-7.04-8.782-9.803-6.776-6.17-14.952-10.372-23.923-12.416-2.802-.644-4.732-.985-5.83-1.06-3.104-.19-6.321-.303-9.766-.19-1.892.038-3.671.19-5.375.493-2.158.416-4.126.795-5.98 1.287-17.186 4.693-30.7 17.601-36.567 34.332-.492 1.4-.795 2.84-1.287 4.24-.34 1.06-.605 2.044-.757 3.142-.303 2.195-.643 4.428-.984 6.662a9.432 9.432 0 0 0-.038 2.725c.265 1.742-.265 3.331 0 5.073.303 2.006.606 4.05.946 6.094.19 1.25.492 2.65.985 4.202a45.395 45.395 0 0 1 1.06 4.201l-2.158.152c-.454-1.212-.909-2.31-1.211-3.483-.682-2.99-1.515-5.943-1.704-9.009-.265-4.277-.265-8.517.114-12.718.151-2.196.681-4.278 1.211-6.435C26.204 25.34 40.777 10.01 59.175 3.84c3.444-1.136 6.737-1.93 9.917-2.31 2.233-.264 4.429-.454 6.662-.605 2.726-.151 5.337.265 8.025.454 4.845.341 9.766 1.78 14.308 3.634 10.41 4.202 18.851 10.902 25.362 20.176.114.076.189.265.303.568Z"/><path fill="#fff" d="m121.973 26.816-4.051 2.726c-2.195-2.877-3.898-4.997-5.148-6.17-6.964-7.192-15.368-11.924-25.02-14.157-.947-.19-2.007-.417-3.18-.53-1.136-.152-2.195-.303-3.255-.417-2.347-.303-4.846-.303-7.382-.113-1.703.151-3.634.416-5.83.757-2.043.303-3.898.795-5.677 1.362C45.737 15.801 33.359 28.482 29.08 45.63c-.492 1.893-.832 3.9-1.06 5.981-.302 2.725-.454 4.732-.416 5.98.038 2.84.416 6.284 1.06 10.259.303 1.741.946 3.937 1.93 6.586l-4.92 1.4a48.714 48.714 0 0 0-1.06-4.2c-.455-1.553-.795-2.953-.984-4.202a293.721 293.721 0 0 0-.947-6.095c-.265-1.741.265-3.33 0-5.072-.151-.909-.113-1.855.038-2.725.34-2.234.681-4.505.984-6.663.152-1.06.417-2.082.757-3.142.454-1.4.795-2.838 1.287-4.239C31.58 22.766 45.131 9.858 62.316 5.164a52.882 52.882 0 0 1 5.981-1.287 30.506 30.506 0 0 1 5.375-.492c3.407-.113 6.624 0 9.766.19 1.098.037 2.99.454 5.83 1.06 8.97 2.043 17.147 6.245 23.923 12.415 3.066 2.763 6.473 6.17 8.782 9.766Z"/><path fill="#0058A2" d="M117.922 29.58c.303.947.909 1.78 1.704 2.65 2.46 4.353 4.277 8.971 5.526 13.892.757 2.877 1.06 6.17 1.401 9.274.151 1.136.113 2.84-.114 5.148-.946 11.167-4.883 20.82-11.696 28.92-7.533 8.858-18.132 15.066-29.866 16.845-2.99.454-5.64.643-7.912.53-3.671-.152-6.17-.303-7.381-.492-15.103-2.385-28.011-11.356-35.62-24.832l-3.255-7.079c-.984-2.65-1.628-4.845-1.93-6.586-.644-3.975-.985-7.42-1.06-10.258 0-1.287.113-3.294.416-5.981.265-2.082.605-4.088 1.06-5.98C33.472 28.482 45.85 15.84 62.543 10.274c1.742-.605 3.634-1.06 5.678-1.362 2.196-.341 4.126-.606 5.83-.757 2.574-.19 5.034-.19 7.381.113 1.06.152 2.158.265 3.255.417 1.212.151 2.234.34 3.18.53 9.728 2.233 18.056 6.927 25.021 14.157 1.136 1.249 2.839 3.33 5.034 6.207Zm-74.23-.302c-3.482 3.898-6.094 8.44-7.835 13.513a69.133 69.133 0 0 0-1.098 3.407 20.19 20.19 0 0 0-.757 3.331 74.034 74.034 0 0 0-.643 6.51c-.152 2.953.151 6.511.946 10.865.303 1.627 1.06 3.103 1.363 4.731.151.757.53.947 1.249.644l1.06-.492c.643-.303.833-.795.53-1.439-.417-1.06-.833-2.006-1.06-3.104a135.788 135.788 0 0 1-1.136-7.419c-.038-.303.19-.53.492-.53l16.845-.038c.34 0 .53.19.53.53l-.114 4.202c0 .643.265.833.833.53l1.552-.757c.492-.265.757-.644.757-1.25l-.114-2.65c0-.34.266-.605.606-.605 2.536 0 5.035 0 7.42-.038.605 0 .984-.113 1.286-.264a50.668 50.668 0 0 1 3.824-1.855c.113-.038.15-.114.189-.152.038-.038.113-.151.151-.189.038-.151-.038-.34-.265-.34L57.85 56.38c-.303 0-.492-.265-.455-.492.303-2.346.53-4.731.833-7.078.114-.644.265-1.4.454-2.196.19-.757.417-1.514.492-2.195l1.363-5.186c.038-.19.265-.34.454-.34h14.347c.189 0 .416.189.416.416v14.914l-.114 2.006c0 .19-.113.303-.302.303l-2.082.038c-.19 0-.303.265-.152.34l3.786 4.43c-.909.453-1.287 1.06-1.287 1.778a702.42 702.42 0 0 1 0 12.643c0 .265-.19.455-.455.455H59.667a.933.933 0 0 1-.909-.795l-.492-3.104c-.114-.53-.416-.682-.908-.492-.909.416-1.401.605-1.439.605-.53.265-.757.644-.606 1.211.152.682.341 1.439.492 2.158.038.19-.15.454-.34.454h-5.792c-1.892-.037-4.05.757-5.64 1.628-.53.303-1.135.53-1.741.757-.757.19-1.893.416-2.385.984-.19.265-.19.492-.038.757 5.83 9.426 13.968 15.785 24.453 19.078 1.893.606 3.748.795 5.64 1.212 3.9.832 8.328.794 12.114.454 1.514-.152 2.952-.644 4.428-.833.984-.151 2.044-.416 3.142-.681 6.51-2.007 12.227-5.3 16.996-9.88 5.337-5.072 9.236-11.015 11.621-17.753.681-2.006 1.363-4.126 1.703-6.284.985-5.98.909-11.696-.265-17.26-.643-3.18-1.779-6.474-3.444-9.88-.946-1.93-2.233-3.52-3.293-5.451-.795-1.4-1.628-2.688-2.688-3.823a43.403 43.403 0 0 0-23.734-14.195c-1.892-.417-3.482-.682-4.883-.833-3.899-.454-8.328-.303-12.416.53-2.347.492-3.898.833-4.618 1.06-8.1 2.157-15.103 6.662-20.932 13.438ZM137.114 16.595a163.955 163.955 0 0 0-6.019-1.59c-1.627-.416-3.179-1.06-5.034-1.287a.467.467 0 0 1-.417-.264c-.037-.19 0-.303.19-.303l21.879-3.52c.265-.038.303.037.151.264a6.081 6.081 0 0 0-.908 1.25c-3.104 5.148-5.981 10.106-8.782 14.838a34.963 34.963 0 0 0-1.439 2.65c-.037.113-.151.151-.265.113-.151-.038-.189-.113-.189-.19.189-3.254.53-6.018.946-8.44.19-1.06-.037-2.044.152-3.104.038-.227-.076-.379-.265-.417Z"/><path fill="#fff" d="m106.604 89.615-2.006-2.044a45.947 45.947 0 0 0 5.565-6.284 22.837 22.837 0 0 0 1.514-2.196c.113-.151 0-.416-.19-.416h-13.74c-.19 0-.34.114-.417.265l-.53 1.438a17.377 17.377 0 0 0-4.277-4.201l1.93.151a.717.717 0 0 0 .606-.34c.417-1.098.681-2.234.909-3.483.643-4.505.946-8.82.984-13.097a.419.419 0 0 0-.416-.417h-14.46l-.265-.113c-.152-.038-.152-.265-.038-.34.833-.644 1.779-1.25 2.839-1.742a2.65 2.65 0 0 1 1.249-.303c.454 0 .946 0 1.4-.038h9.16c.114 0 .19-.113.19-.189-.303-2.347-.606-4.77-.606-7.116 0-.833-.113-1.704-.302-2.499-.53-2.157-1.287-4.542-2.196-7.192-.151-.416-.416-.606-.833-.606H78.707c-.19 0-.303.114-.303.303v13.665a5.525 5.525 0 0 0-2.688 1.363V39.27c0-.19-.189-.417-.416-.417H60.954c-.19 0-.417.152-.455.341l-1.362 5.186c-.303-.265-.682-.757-1.287-1.514-.19-.303-.644-.454-1.25-.492.152-1.06.493-2.082.947-3.028.113-.19-.038-.455-.265-.417l-3.672.152-2.536-2.802 6.814.038c.302 0 .492-.151.605-.454 2.158-6.246 4.883-12.15 8.328-17.601.113-.152.038-.265-.152-.265-.681.037-1.4.189-2.081.416-7.533 2.536-13.893 6.776-19.078 12.718l-2.007-1.892c5.83-6.738 12.795-11.28 20.933-13.665.757-.19 2.31-.53 4.618-1.06 4.088-.833 8.517-.984 12.416-.53 1.4.152 2.99.454 4.883.833 9.312 2.044 17.488 7.04 23.734 14.195.984 1.211 1.893 2.46 2.687 3.823 1.06 1.893 2.347 3.444 3.294 5.45 1.589 3.408 2.725 6.663 3.444 9.88 1.136 5.527 1.249 11.319.265 17.261-.34 2.158-.946 4.278-1.703 6.284-2.233 6.89-6.094 12.794-11.47 17.905ZM92.485 36.166C90.29 29.58 87.11 23.41 83.211 17.542c-.265-.416-.643-.605-1.135-.643-1.098-.114-2.234-.152-3.445-.152-.114 0-.19.114-.19.19v19.229c0 .114.114.19.19.19h13.74c.114-.039.19-.077.114-.19ZM62.203 34.16c-.19.605-.53 1.135-.682 1.741-.038.265.038.34.265.34h13.741c.114 0 .19-.113.19-.189l.037-19.002c0-.303-.151-.454-.454-.416l-3.748.19a.562.562 0 0 0-.53.302c-1.4 2.385-3.028 4.618-4.353 7.04a80.68 80.68 0 0 0-4.466 9.994Zm48.944 3.104c.908.795 1.741.643 2.574-.455.189-.264.189-.53 0-.794l-1.136-1.439c-.113-.113-.189-.151-.303-.151-.946.038-1.703-.34-2.347-1.212-5.678-7.419-13.589-13.059-22.56-15.254-.454-.114-.53.038-.303.454 3.407 5.337 6.132 11.129 8.214 17.412a.766.766 0 0 0 .682.492h7.57c1.249 0 2.385.114 3.445.341 1.211.265 2.347.416 3.52.416.303-.037.492.038.644.19Zm-9.615 1.665-4.92-.038c-.266 0-.417.265-.304.455.492 1.06.795 2.082.795 3.104.114 2.044.492 3.898 1.136 5.488.34.795.53 1.628.643 2.536.152 2.007.303 3.975.492 5.868 0 .189.114.265.303.265h17.98c.19 0 .341-.152.341-.341-.189-1.93-.454-4.05-.795-6.284-.605-3.52-1.93-7.116-3.444-10.485-.114-.19-.303-.416-.53-.454l-2.196-.492c-1.627-.303-3.179-.682-4.618-1.212-.454-.151-.908-.113-1.287.19a9.76 9.76 0 0 1-3.596 1.4Zm-4.504 6.36c-.417-.833-.455-1.628-.152-2.46.038-.152-.038-.304-.265-.304-.53.114-.946.341-1.362.682a.357.357 0 0 0-.038.492c.302.416.454.795.492 1.287.151 1.249.832 2.309.492 3.634-.114.303.038.416.34.303.606-.19.985-.53 1.25-1.06.113-.19.113-.417-.038-.53-.34-.644-.53-1.287-.53-2.007 0-.037 0-.037-.038-.037h-.151c.037 0 .037 0 0 0Zm16.503 30.623c.985-2.082 1.855-4.202 2.574-6.435 1.06-3.256 1.401-6.663 1.78-10.07 0-.15-.114-.302-.265-.302H99.829c-.19 0-.303.114-.303.303.038 4.504-.265 8.933-.833 13.324a14.799 14.799 0 0 1-.833 3.331c-.037.19.038.34.265.34h14.612c.34 0 .643-.226.794-.491Z"/><path fill="#0058A2" d="M83.173 17.542c3.937 5.867 7.117 12.075 9.274 18.623.038.114 0 .152-.113.152h-13.74c-.114 0-.19-.114-.19-.19V16.899c0-.113.113-.189.19-.189 1.21 0 2.308.038 3.444.151.53.038.908.265 1.135.682ZM62.203 34.158a69.146 69.146 0 0 1 4.504-9.955c1.287-2.385 2.99-4.618 4.353-7.041a.604.604 0 0 1 .53-.303l3.748-.19c.303 0 .454.114.454.417l-.038 19.003c0 .113-.114.189-.19.189h-13.74c-.265 0-.34-.114-.265-.34.076-.607.454-1.174.644-1.78ZM110.579 37.038c-1.136 0-2.347-.151-3.52-.416-1.06-.265-2.196-.341-3.445-.341h-7.57c-.303 0-.606-.19-.682-.492a79.094 79.094 0 0 0-8.214-17.413c-.265-.416-.152-.53.303-.454 9.009 2.196 16.882 7.836 22.56 15.255.644.833 1.401 1.25 2.347 1.211.151 0 .265.038.303.152l1.135 1.438c.19.265.19.606 0 .795-.832 1.098-1.703 1.25-2.574.454-.227-.113-.416-.189-.643-.189ZM51.188 36.206l-8.139.038c-.303 0-.454-.303-.303-.53l2.953-4.505c5.186-5.943 11.507-10.182 19.078-12.718.681-.265 1.4-.341 2.082-.417.189 0 .265.038.151.265-3.445 5.451-6.17 11.356-8.328 17.602-.113.265-.34.454-.605.454l-6.89-.19Z"/><path fill="#849ACB" d="M125.379 28.105a6.779 6.779 0 0 0-1.703 1.4c-1.211 1.287-2.574 2.196-4.088 2.688-.795-.833-1.363-1.704-1.703-2.65l4.05-2.726 1.779-1.097 11.204-7.079c.152-.113.265-.038.303.152 0 .113-.038.189-.151.303-2.801 3.066-6.057 6.056-9.691 9.009Z"/><path fill="#849ACB" d="M125.38 28.104c1.589 2.498 2.99 5.185 4.126 8.176 3.444 8.857 4.731 17.829 3.823 26.913-.341 3.407-.947 6.625-1.893 9.766-3.142 10.675-8.782 19.646-16.807 26.8-8.819 7.874-19.343 12.568-31.531 14.006-1.893.189-4.618.303-8.139.189a47.857 47.857 0 0 1-7.835-.757c-4.732-.833-9.388-2.309-13.892-4.391-11.621-5.375-20.403-13.665-26.308-24.907.832-.454 1.59-.681 2.195-.681 7.079 12.756 17.413 21.387 30.964 25.929 1.893.643 3.899 1.136 5.98 1.552 2.991.53 5.035.833 6.133.946 10.372.795 20.176-1.097 29.374-5.678 13.514-6.738 23.28-19.04 27.595-33.424.53-1.855.984-3.823 1.363-6.019.416-2.384.605-4.504.681-6.17.492-11.053-2.006-21.387-7.533-30.85.606-.643 1.174-1.098 1.704-1.4Z"/><path fill="#FFEFEF" d="m43.693 29.277 2.006 1.893-2.953 4.505c-.151.265 0 .53.303.53l8.139-.038 2.536 2.8c-4.05.039-8.063 0-12-.113-.605 0-.984.265-1.287.757-1.552 3.142-2.877 7.04-3.444 10.713-.265 1.703-.455 3.406-.682 5.072-.113.606.19.908.795.908l16.693.038c.341 0 .606-.265.644-.53.416-3.18.492-6.472 1.287-9.652.303-1.25.643-2.536.946-3.785.606.037 1.06.264 1.25.492.53.757.983 1.249 1.286 1.514-.151.681-.303 1.438-.492 2.195-.189.795-.34 1.552-.454 2.196-.303 2.384-.53 4.731-.833 7.078-.038.265.19.492.455.492l12.453.038c.19 0 .303.19.265.34-.038.114-.038.152-.151.19-.038.038-.152.114-.19.152-1.287.492-2.536 1.135-3.823 1.854-.265.152-.681.19-1.287.265-2.384.038-4.883.038-7.419.038a.623.623 0 0 0-.606.606l.114 2.65c0 .53-.265.984-.757 1.249l-1.552.757c-.606.303-.833.113-.833-.53l.114-4.202c0-.34-.152-.53-.53-.53l-16.845.038c-.303 0-.53.265-.492.53.303 2.46.682 4.92 1.136 7.42.189 1.097.643 2.081 1.06 3.103.265.644.113 1.136-.53 1.439l-1.06.492c-.682.34-1.098.113-1.25-.644-.302-1.59-1.06-3.028-1.362-4.731-.795-4.354-1.098-7.987-.946-10.864.113-2.044.302-4.202.643-6.511.151-1.136.416-2.233.757-3.331.34-1.06.681-2.196 1.098-3.407 1.741-5.072 4.315-9.577 7.798-13.476Z"/><path fill="#fff" d="M123.714 29.504c5.527 9.463 8.025 19.797 7.533 30.85a69.136 69.136 0 0 1-.682 6.17c-.34 2.196-.795 4.24-1.362 6.019-4.353 14.422-14.12 26.648-27.595 33.424-9.16 4.58-19.002 6.473-29.374 5.678-1.098-.113-3.142-.416-6.132-.946-2.082-.417-4.089-.909-5.981-1.552-13.552-4.543-23.886-13.21-30.964-25.93a15.823 15.823 0 0 0 4.694-1.74c7.608 13.475 20.478 22.446 35.62 24.831 1.249.189 3.671.34 7.38.492 2.31.113 4.922-.114 7.912-.53 11.697-1.779 22.333-7.987 29.866-16.845 6.89-8.062 10.751-17.753 11.697-28.92.189-2.309.265-3.974.113-5.147-.34-3.104-.643-6.322-1.4-9.274a56.919 56.919 0 0 0-5.527-13.893c1.59-.492 2.991-1.4 4.202-2.687Z"/><path fill="#849ACB" d="m110.995 38.513-9.463.416c1.287-.19 2.498-.644 3.52-1.438.417-.303.833-.341 1.287-.19 1.477.53 2.991.909 4.656 1.212Z"/><path fill="#0058A2" d="m110.995 38.514 2.196.492c.265.038.454.189.53.454 1.514 3.331 2.839 6.927 3.444 10.485.341 2.234.644 4.353.795 6.284 0 .19-.151.34-.34.34H99.64c-.152 0-.266-.113-.303-.264-.19-1.893-.341-3.824-.493-5.868-.037-.908-.302-1.74-.643-2.536-.643-1.552-1.06-3.407-1.136-5.489-.037-.984-.302-2.044-.795-3.103-.113-.19.038-.455.303-.455l4.921.038 9.501-.378ZM56.714 42.336c-.303 1.249-.644 2.536-.946 3.785-.795 3.18-.909 6.473-1.287 9.652-.038.303-.341.53-.644.53l-16.693-.037c-.606 0-.909-.303-.795-.909.265-1.703.454-3.407.681-5.072.492-3.672 1.893-7.533 3.445-10.713.265-.492.681-.757 1.287-.757 3.974.114 7.987.152 12 .114l3.671-.152c.19 0 .34.19.265.417-.53 1.06-.833 2.12-.984 3.142ZM87.261 56.57l-8.365-.039a.541.541 0 0 1-.53-.53l.038-3.103V39.231c0-.189.113-.302.303-.302h13.967c.417 0 .682.189.833.605a103.18 103.18 0 0 1 2.196 7.192c.189.795.302 1.628.302 2.499 0 2.385.341 4.845.606 7.116 0 .114-.113.19-.19.19l-9.16.037Z"/><path fill="#849ACB" d="M97.065 45.326a.115.115 0 0 0 .152 0c.038 0 .038 0 .038.038.038.681.189 1.4.53 2.006.113.19.113.416.037.53-.189.492-.605.833-1.249 1.06-.302.113-.416 0-.34-.303.302-1.363-.341-2.385-.493-3.634a2.356 2.356 0 0 0-.492-1.287.357.357 0 0 1 .038-.492c.341-.34.795-.53 1.363-.681.151-.038.303.113.265.302-.303.757-.265 1.552.151 2.46 0-.037 0-.037 0 0ZM78.404 52.822l-.038 3.104c0 .303.265.53.53.53l8.365.038c-.454 0-.946 0-1.4.038a2.65 2.65 0 0 0-1.25.303c-1.06.53-1.93 1.135-2.838 1.74-.114.114-.114.304.038.342l.264.113-3.406.038c-.265 0-.417.265-.34.454.113.417.15.757.113 1.136-.492-.038-.909.19-1.136.757-.19.114-.34 0-.492-.19l-3.785-4.428c-.152-.152-.038-.34.151-.34l2.082-.039c.19 0 .303-.113.303-.303l.113-2.006c.833-.643 1.704-1.098 2.726-1.287Z"/><path fill="#0058A2" d="M116.105 69.4a54.132 54.132 0 0 1-2.574 6.435.93.93 0 0 1-.832.53H98.087c-.189 0-.302-.189-.265-.34.417-1.06.644-2.158.833-3.332.606-4.428.909-8.857.833-13.324 0-.189.114-.303.303-.303h17.791c.151 0 .265.152.265.303-.341 3.37-.682 6.852-1.742 10.031ZM82.076 59.105h14.46c.189 0 .416.152.416.417-.038 4.277-.416 8.63-.984 13.097a13.09 13.09 0 0 1-.909 3.483c-.113.264-.34.416-.605.34l-1.93-.151-13.4-.038a.663.663 0 0 1-.644-.644l.113-12.377-.113-2.461c.037-.416.037-.795-.114-1.136-.038-.189.114-.454.34-.454l3.37-.075Z"/><path fill="#849ACB" d="m23.555 75.99 2.157-.152 4.921-1.4 3.256 7.078c-1.401.795-2.953 1.4-4.694 1.741-.606 0-1.363.265-2.196.682-2.006.492-3.936.984-5.867 1.438-1.628.416-3.18.681-4.732.833-2.233.265-4.58.984-6.813.984-1.59 0-3.52-.454-5.83-1.25-2.65-.945-3.596-3.406-2.725-5.98 1.363-4.353 5.489-8.82 8.82-11.848 2.65-2.46 5.186-4.618 7.684-6.624.19-.152.416-.34.492-.53.19-.303.454-.454.681-.53.341-.114.417 0 .19.303-1.098 1.552-2.082 3.142-3.029 4.77-1.59 2.8-2.8 5.677-3.595 8.668-.53 2.044.492 3.028 2.498 3.028 3.028.038 5.943-.34 8.782-1.211Z"/><path fill="#fff" d="m78.442 60.732.113 2.46c0-.605-.454-1.135-1.249-1.703.227-.53.606-.795 1.136-.757Z"/><path fill="#FFEFEF" d="M76.814 61.3c.151.266.303.304.492.19.795.53 1.211 1.098 1.25 1.703l-.114 12.378c0 .341.302.644.643.644l13.4.038c1.741 1.211 3.18 2.574 4.278 4.201-1.78 5.678-4.543 10.978-8.215 15.785-.038.038-.038.19.038.19.152.037.303.037.492 0 5.792-1.893 10.902-4.846 15.444-8.858l2.007 2.044c-4.77 4.58-10.486 7.873-16.996 9.88-1.098.34-2.158.605-3.142.681-1.514.189-2.953.681-4.43.833-3.784.416-8.213.416-12.112-.455-1.893-.416-3.748-.605-5.64-1.21-10.485-3.294-18.624-9.653-24.453-19.079-.152-.265-.152-.492.038-.757.492-.605 1.627-.795 2.384-.984a5.937 5.937 0 0 0 1.742-.757c1.59-.909 3.747-1.703 5.64-1.628a147.9 147.9 0 0 0 5.791 0c.19 0 .417-.19.34-.454-.15-.681-.302-1.439-.491-2.158-.152-.53.038-.946.605-1.211.038 0 .493-.19 1.439-.606.492-.189.795-.037.908.493l.492 3.103c.038.455.455.795.909.795h15.482c.265 0 .454-.189.454-.454.038-4.429.038-8.668 0-12.643 0-.681.454-1.249 1.325-1.703ZM55.427 78.752c-4.088.038-8.139.114-12.227.038-.416 0-.605.454-.416.757 5.64 8.365 12.946 14.006 21.88 16.882.832.303.983.038.415-.605-3.898-4.732-6.51-10.561-8.365-16.504-.038-.152-.151-.303-.303-.34-.303-.19-.643-.228-.984-.228Zm5.261 2.839c2.045 5.564 5.073 10.864 9.123 15.141 1.363 1.4 3.445 1.704 5.224 1.514a.479.479 0 0 0 .416-.454l.114-18.397a.598.598 0 0 0-.606-.605H60.423c-.416 0-.68.454-.492.795.228.643.53 1.362.758 2.006Zm23.204 15.52c3.748-4.088 6.284-8.48 8.555-13.476.606-1.287.795-2.574 1.552-3.823.265-.454 0-.946-.492-.984-.454-.038-.908-.114-1.363-.038-4.542.038-8.857.038-13.059.038a.598.598 0 0 0-.605.605l-.038 18.397c0 .265.189.454.454.454 1.438.076 3.899.038 4.996-1.173Z"/><path fill="#0058A2" d="M55.427 78.752c.34 0 .681.038.984.265.152.114.265.19.303.34 1.893 5.868 4.542 11.773 8.366 16.505.53.68.416.908-.417.605-8.933-2.877-16.239-8.517-21.879-16.882-.19-.303 0-.757.416-.757 4.05 0 8.139-.038 12.227-.076ZM60.688 81.588a31.783 31.783 0 0 0-.832-2.006c-.152-.416.113-.795.492-.795H74.92c.341 0 .606.265.606.606l-.114 18.396c0 .265-.151.455-.416.455-1.78.265-3.899-.114-5.224-1.514-3.974-4.278-7.04-9.577-9.084-15.142ZM104.598 87.572c-4.542 4.05-9.652 6.965-15.444 8.857a1.08 1.08 0 0 1-.492 0c-.114-.038-.114-.151-.038-.189 3.672-4.845 6.435-10.107 8.214-15.785l.53-1.438c.038-.19.19-.265.417-.265h13.74c.189 0 .303.19.189.416-.454.757-.946 1.514-1.514 2.196-1.665 2.157-3.558 4.24-5.602 6.208ZM92.447 83.673c-2.309 4.996-4.845 9.387-8.555 13.476-1.097 1.135-3.52 1.249-5.034 1.097a.437.437 0 0 1-.454-.454l.038-18.397c0-.34.265-.605.605-.605 4.202 0 8.517 0 13.06-.038.454 0 .908 0 1.362.038.492.038.757.605.492.984-.719 1.287-.946 2.612-1.514 3.899Z"/></svg>